<svg xmlns="http://www.w3.org/2000/svg" width="258" height="258" viewBox="0 0 258 258">
  <g fill="none">
    <circle cx="128.406" cy="129.406" r="120.406" fill="#333"/>
    <path fill="#333" d="M129,0 C57.869,0 0,57.87 0,129.001 C0,200.131 57.869,258 129,258 C200.131,258 258,200.131 258,129.001 C258,57.87 200.131,0 129,0 Z M129,249.528 C62.541,249.528 8.472,195.459 8.472,129.001 C8.472,62.541 62.541,8.472 129,8.472 C195.459,8.472 249.527,62.541 249.527,129.001 C249.527,195.459 195.459,249.528 129,249.528 Z"/>
    <path fill="#333" d="M129,10.113 C63.445,10.113 10.112,63.445 10.112,129.001 C10.112,194.555 63.445,247.888 129,247.888 C194.555,247.888 247.888,194.555 247.888,129.001 C247.888,63.445 194.555,10.113 129,10.113 Z M47.659,152.695 L44.509,153.611 C42.178,145.594 40.996,137.314 40.996,129.001 C40.996,120.688 42.179,112.408 44.509,104.391 L47.659,105.307 C45.414,113.026 44.275,120.998 44.275,129.001 C44.275,137.003 45.414,144.976 47.659,152.695 Z M152.196,154.312 L129.203,131.319 L106.21,154.313 L103.892,151.994 L126.884,129 L103.891,106.008 L106.209,103.689 L129.202,126.681 L152.194,103.689 L154.513,106.008 L131.521,129 L154.514,151.993 L152.196,154.312 Z M210.341,152.695 C212.587,144.976 213.725,137.004 213.725,129.001 C213.725,120.998 212.587,113.026 210.341,105.307 L213.491,104.391 C215.821,112.408 217.004,120.688 217.004,129.001 C217.004,137.314 215.821,145.594 213.491,153.611 L210.341,152.695 Z"/>
    <path fill="#FFF" d="M129,8.472 C62.541,8.472 8.472,62.541 8.472,129.001 C8.472,195.459 62.54,249.528 129,249.528 C195.459,249.528 249.527,195.459 249.527,129.001 C249.527,62.541 195.459,8.472 129,8.472 Z M129,247.888 C63.445,247.888 10.112,194.555 10.112,129.001 C10.112,63.445 63.445,10.113 129,10.113 C194.555,10.113 247.888,63.445 247.888,129.001 C247.888,194.555 194.555,247.888 129,247.888 Z"/>
    <polygon fill="#FFF" points="154.514 106.008 152.195 103.689 129.203 126.681 106.21 103.689 103.892 106.008 126.884 129 103.892 151.994 106.21 154.313 129.203 131.318 152.196 154.312 154.515 151.993 131.521 129"/>
    <path fill="#FFF" d="M213.491 104.391L210.341 105.307C212.587 113.026 213.725 120.998 213.725 129.001 213.725 137.003 212.587 144.976 210.341 152.695L213.491 153.611C215.821 145.594 217.004 137.314 217.004 129.001 217.004 120.688 215.821 112.408 213.491 104.391zM44.509 104.391C42.178 112.408 40.996 120.688 40.996 129.001 40.996 137.314 42.179 145.594 44.509 153.611L47.659 152.695C45.414 144.976 44.275 137.004 44.275 129.001 44.275 120.998 45.414 113.026 47.659 105.307L44.509 104.391z"/>
    <g fill="#FFF" transform="translate(57 33)">
      <path d="M9.05 42.752C9.05 42.752 10.185 43.766 10.417 43.98 10.533 44.087 11.004 44.273 11.456 44.441 12.042 44.232 13.011 43.841 13.92 42.859 14.936 41.76 15.252 40.375 14.153 39.358 11.322 36.74 6.234 43.401 1.649 39.161-.721 36.97-.421 33.708 2.003 31.088 3.25 29.739 4.964 28.466 6.616 27.491L10.085 31.199 8.509 32.708 7.084 31.39C7.006 31.319 6.667 31.183 6.214 31.015 5.591 31.225 4.97 31.473 4.328 32.166 3.26 33.322 3.125 34.627 4.108 35.536 6.689 37.923 11.931 31.404 16.362 35.502 19.002 37.942 18.569 41.58 16.003 44.355 13.598 46.957 10.927 47.989 10.927 47.989L7.476 44.261 9.05 42.752zM27.223 17.209C26.982 16.896 26.329 16.102 26.024 15.833 25.945 15.76 25.727 15.622 25.494 15.461 25.072 15.679 24.416 16.02 23.761 16.455L22.647 17.195C22.814 17.589 23.336 18.658 23.626 19.095L28.69 26.718C29.416 27.811 30.324 28.845 30.57 29.121L32.077 28.309 33.071 30.042C33.071 30.042 31.229 31.108 28.76 32.748 27.733 33.431 26.648 34.309 26.648 34.309L25.523 32.852 26.79 31.632C26.667 31.399 26.029 30.06 25.739 29.623L20.675 22C19.964 20.93 19.159 20.048 18.868 19.705L17.842 20.388C17.186 20.824 16.574 21.325 16.167 21.659 16.225 21.935 16.268 22.189 16.304 22.291 16.435 22.677 16.913 23.586 17.109 23.929L15.463 24.864 13.208 21.136 13.361 20.467C13.361 20.467 15.559 19.321 15.996 19.031L23.118 14.3C23.554 14.01 25.463 12.427 25.463 12.427L26.139 12.545 28.723 16.055 27.223 17.209zM33.997 8.37C33.997 8.37 35.623 7.933 36.513 7.619L43.139 5.271C43.632 5.096 45.869 4.025 45.869 4.025L46.497 4.304 48.036 8.099 46.3 8.853C46.109 8.475 45.79 7.809 45.56 7.474 45.5 7.384 45.296 7.122 45.102 6.968 44.59 7.094 43.856 7.298 43.114 7.561L40.395 8.524C40.528 8.978 40.866 10.167 41.005 10.562L42.258 14.097C42.514 14.034 42.786 13.938 42.91 13.894L44.294 13.403C44.788 13.228 45.302 12.796 45.302 12.796L44.965 11.135 46.542 10.716C46.542 10.716 47.068 12.282 47.244 12.776 47.682 14.012 48.431 15.89 48.431 15.89L46.901 16.598 46.152 15.194C46.152 15.194 45.012 15.432 44.518 15.607L43.751 15.878C43.677 15.904 43.157 16.088 42.993 16.175L44.062 19.191C44.394 20.131 44.864 21.3 45.064 21.784L48.153 20.69C48.87 20.436 49.528 20.092 49.987 19.818 50.077 19.285 50.094 18.861 50.08 18.588 50.048 18.183 49.969 17.487 49.878 17.074L51.652 16.585 52.823 21.067 52.51 21.678C52.51 21.678 50.152 22.403 49.657 22.578L42.685 25.047C41.507 25.492 40.232 26.055 40.232 26.055L39.496 24.368 41.023 23.493C41.009 23.22 40.668 21.782 40.492 21.288L37.435 12.66C36.997 11.424 36.547 10.47 36.24 9.995L34.529 10.267 33.997 8.37zM80.89 2.39C80.89 2.39 80.225 3.621 79.921 4.682L75.861 19.108 72.846 19.214 69.097 8.241 65.974 19.457 62.958 19.563 57.625 4.603C57.333 3.798 56.972 3.207 56.972 3.207L55.39 3.027 55.456 1.186C55.456 1.186 56.903 1.267 57.873 1.232 60.836 1.127 63.323.909 63.323.909L63.522 2.819 61.826 3.114C61.826 3.114 61.797 3.798 61.979 4.475L64.681 14.067 67.735 1.671 70.699 1.566 74.567 13.718 76.861 3.581C76.998 2.998 76.879 2.582 76.879 2.582L75.189 2.327 75.256.486C75.256.486 76.912.559 78.145.515 80.321.438 81.994.247 81.994.247L82.193 2.157 80.89 2.39zM99.987 24.082C99.987 24.082 98.777 23.63 97.889 23.398 94.869 22.608 92.68 22.172 92.68 22.172L93.037 20.286 94.595 20.45 94.812 19.097 94.789 17.735 89.994 16.482 89.139 17.993 88.735 18.917 90.127 19.606 89.536 21.349C89.536 21.349 88.072 20.831 86.881 20.52 84.724 19.956 83.321 19.724 83.321 19.724L83.677 17.839 84.866 17.959 86.502 16.056 94.904 3.507 97.819 3.97 98.994 20.216 99.22 21.737 100.581 22.337 99.987 24.082zM91.221 14.581L94.685 15.433 94.62 9.047 91.221 14.581zM122.585 21.161C121.484 23.101 119.475 23.982 117.339 23.915 117.206 26.647 117.399 29.231 117.409 29.478L117.482 31.21 118.525 31.924 117.426 33.593C117.426 33.593 115.71 32.468 113.132 31.002 113.132 31.002 113.503 28.437 113.517 27.72L113.71 22.97 113.367 22.775C113.117 22.632 112.764 22.403 112.401 22.137L111.275 24.122C110.626 25.263 110.111 26.54 109.976 26.886L111.382 27.865 110.283 29.534C110.283 29.534 108.499 28.37 105.921 26.905 104.848 26.296 103.574 25.723 103.574 25.723L104.368 24.061 106.029 24.642C106.181 24.427 107.09 23.253 107.35 22.797L111.873 14.833C112.508 13.715 112.906 12.643 113.105 12.183L111.777 11.067 112.864 9.421C112.864 9.421 114.009 10.222 115.149 10.87 116.45 11.609 118.747 12.613 119.98 13.313 123.153 15.115 124.296 18.148 122.585 21.161zM117.102 14.184C116.645 14.83 115.98 15.841 115.798 16.161L113.453 20.29 114 20.601C116.167 21.832 117.692 21.219 118.886 19.12 120.026 17.112 119.648 15.6 117.594 14.433 117.48 14.368 117.32 14.277 117.102 14.184zM139.523 35.171C139.777 34.87 140.413 34.061 140.61 33.705 140.665 33.612 140.754 33.369 140.86 33.107 140.557 32.741 140.084 32.173 139.518 31.627L138.557 30.696C138.208 30.944 137.274 31.683 136.909 32.061L130.543 38.645C129.631 39.588 128.814 40.697 128.597 40.997L129.714 42.296 128.234 43.639C128.234 43.639 126.796 42.068 124.665 40.007 123.777 39.149 122.686 38.276 122.686 38.276L123.869 36.864 125.334 37.841C125.535 37.671 126.707 36.76 127.071 36.383L133.438 29.798C134.331 28.874 135.02 27.898 135.292 27.54L134.406 26.683C133.84 26.136 133.219 25.645 132.805 25.319 132.547 25.435 132.308 25.531 132.216 25.588 131.867 25.799 131.08 26.462 130.788 26.726L129.52 25.318 132.681 22.315 133.368 22.321C133.368 22.321 134.959 24.224 135.337 24.59L141.487 30.536C141.863 30.901 143.819 32.427 143.819 32.427L143.851 33.113 140.974 36.391 139.523 35.171z"/>
      <g transform="translate(20 158)">
        <path d="M20.293 19.3C17.753 24.221 13.186 26.204 7.776 23.412 6.307 22.654 4.349 21.467 2.951 20.745 1.855 20.179.558 19.658.558 19.658L1.285 17.965 2.968 18.48C2.968 18.48 3.971 17.049 4.213 16.583L8.414 8.445C9.016 7.279 9.539 5.748 9.539 5.748L8.168 4.685 9.187 2.997C9.187 2.997 10.362 3.751 11.459 4.317 12.579 4.894 15.31 6.009 16.453 6.599 21.864 9.391 22.881 14.286 20.293 19.3zM13.469 7.746C13.241 8.13 12.582 9.237 12.389 9.61L8.189 17.748C7.659 18.774 7.043 20.14 6.922 20.432 7.167 20.587 7.773 20.959 8.401 21.284 11.9 23.089 14.557 20.858 16.423 17.243 18.253 13.699 18.556 10.134 15.128 8.365 14.662 8.125 14.054 7.93 13.469 7.746zM45.692 17.827L43.963 17.642C43.814 17.986 43.419 19.165 43.316 19.679L41.911 26.726C41.034 31.125 37.887 33.493 33 32.518 28.087 31.538 26.141 28.154 27.017 23.756L28.268 17.48C28.525 16.193 28.612 14.954 28.606 14.578L26.996 13.936 27.509 12.033C27.509 12.033 28.847 12.433 30.055 12.674 32.962 13.254 35.201 13.566 35.201 13.566L34.913 15.675 33.185 15.491C33.052 15.759 32.641 17.013 32.539 17.529L31.092 24.782C30.63 27.097 31.577 29.185 34.021 29.673 36.722 30.211 37.961 28.827 38.474 26.255L39.766 19.773C40.022 18.487 40.078 17.268 40.104 16.872L38.493 16.23 39.006 14.326C39.006 14.326 40.344 14.727 41.553 14.968 44.46 15.548 45.977 15.717 45.977 15.717L45.692 17.827zM63.278 15.229L63.68 19.306 61.801 19.537C61.727 19.12 61.608 18.392 61.483 18.004 61.452 17.901 61.334 17.671 61.214 17.414 60.688 17.39 59.898 17.353 59.111 17.395L56.23 17.55C56.229 18.023 56.216 19.258 56.239 19.677L56.455 23.712C56.745 23.723 56.928 23.713 57.085 23.705L58.604 23.624C59.128 23.596 59.745 23.326 59.745 23.326L59.891 21.637 61.522 21.681C61.522 21.681 61.584 23.332 61.612 23.856 61.682 25.166 61.868 27.179 61.868 27.179L60.199 27.426 59.88 25.866C59.88 25.866 58.719 25.771 58.194 25.799L57.226 25.851C57.069 25.859 56.781 25.875 56.573 25.912L56.732 28.898C56.803 30.208 56.998 31.406 57.127 31.846L59.624 31.87 59.6 33.867C59.6 33.867 56.684 33.892 53.725 34.051 52.493 34.117 51.112 34.322 51.112 34.322L50.883 32.495 52.595 32.087C52.659 31.821 52.738 30.346 52.71 29.822L52.221 20.678C52.151 19.369 51.954 18.144 51.83 17.783L50.11 17.56 50.136 15.588C50.136 15.588 51.532 15.645 52.763 15.579L59.784 15.203C60.308 15.175 62.757 14.781 62.757 14.781L63.278 15.229zM79.92 10.894L81.209 14.783 79.427 15.423C79.262 15.033 78.986 14.347 78.778 13.998 78.725 13.904 78.559 13.705 78.387 13.481 77.868 13.573 77.089 13.711 76.332 13.925L73.556 14.709C73.659 15.171 73.918 16.378 74.032 16.783L75.13 20.671C75.415 20.618 75.592 20.568 75.743 20.525L77.208 20.111C77.713 19.968 78.254 19.57 78.254 19.57L78.025 17.89 79.626 17.575C79.626 17.575 80.049 19.172 80.192 19.678 80.548 20.94 81.173 22.863 81.173 22.863L79.6 23.471 78.945 22.021C78.945 22.021 77.792 22.182 77.287 22.325L76.352 22.589C76.202 22.632 75.923 22.711 75.728 22.793L76.541 25.671C76.897 26.933 77.353 28.059 77.574 28.46L80.016 27.934 80.431 29.888C80.431 29.888 77.594 30.554 74.741 31.359 73.554 31.694 72.252 32.198 72.252 32.198L71.627 30.467 73.208 29.693C73.213 29.419 72.964 27.963 72.822 27.458L70.333 18.647C69.976 17.385 69.515 16.233 69.313 15.908L67.587 16.069 67.179 14.14C67.179 14.14 68.552 13.888 69.739 13.553L76.506 11.641C77.01 11.499 79.312 10.576 79.312 10.576L79.92 10.894zM98.075 3.209C98.075 3.209 97.755 5.025 97.785 5.976L98.133 14.664 98.876 15.962C99.528 17.101 100.365 18.193 100.594 18.486L102.152 17.775 103.028 19.571C103.028 19.571 101.119 20.513 98.547 21.986 97.477 22.599 96.335 23.403 96.335 23.403L95.308 21.875 96.655 20.741C96.547 20.499 95.999 19.121 95.738 18.666L94.617 16.707 86.288 11.56C85.656 11.196 84.491 10.956 84.491 10.956L83.007 11.534 82.209 9.874C82.209 9.874 83.526 9.271 84.369 8.79 86.942 7.316 89.04 5.964 89.04 5.964L90.105 7.561 89.015 8.457C89.015 8.457 89.606 9.117 90.08 9.419L95.169 12.764 94.793 6.297C94.78 6.063 94.389 5.379 94.389 5.379L93.232 5.68 92.432 4.021C92.432 4.021 93.932 3.314 95.003 2.702 96.893 1.619 98.285.672 98.285.672L99.35 2.269 98.075 3.209z"/>
      </g>
    </g>
    <path fill="#FFF" d="M90,123 L92.601,123 C94.052,123 95.134,123.103 95.845,123.31 C96.556,123.517 97.165,123.868 97.674,124.364 C98.122,124.796 98.455,125.293 98.673,125.857 C98.891,126.42 99,127.058 99,127.772 C99,128.494 98.891,129.137 98.673,129.703 C98.455,130.269 98.122,130.767 97.674,131.199 C97.161,131.695 96.547,132.046 95.829,132.253 C95.112,132.461 94.036,132.564 92.601,132.564 L90,132.564 L90,123 Z M92.466,124.864 L92.466,130.699 L93.35,130.699 C94.358,130.699 95.128,130.449 95.659,129.949 C96.191,129.45 96.456,128.723 96.456,127.772 C96.456,126.824 96.192,126.103 95.662,125.607 C95.133,125.111 94.362,124.864 93.349,124.864 L92.466,124.864 Z"/>
    <polygon fill="#FFF" points="125 90 131.656 90 131.656 91.864 127.466 91.864 127.466 93.645 131.405 93.645 131.405 95.509 127.466 95.509 127.466 99.564 125 99.564 125 90"/>
    <polygon fill="#FFF" points="125 160 131.656 160 131.656 161.864 127.467 161.864 127.467 163.644 131.406 163.644 131.406 165.508 127.467 165.508 127.467 167.699 131.797 167.699 131.797 169.563 125 169.563 125 160"/>
    <polygon fill="#FFF" points="155 123 157.479 123 160.016 130.059 162.545 123 165.024 123 161.482 132.563 158.543 132.563"/>
  </g>
</svg>
